<svg width="50" height="50" viewBox="0 0 50 50" fill="none" xmlns="http://www.w3.org/2000/svg">
<rect width="50" height="50" rx="10" fill="url(#paint0_linear_13588_30)"/>
<path fill-rule="evenodd" clip-rule="evenodd" d="M10.4247 7.03091C9.83087 7.03091 9.35063 7.52407 9.35063 8.12954V41.8704C9.35063 42.4759 9.83218 42.9691 10.4247 42.9691H39.5752C40.1691 42.9691 40.6493 42.4759 40.6493 41.8704V12.661L35.0194 7.03091H10.4247ZM39.5752 43.7514H10.4247C9.40227 43.7514 8.56958 42.9097 8.56958 41.8717V8.13085C8.56958 7.09284 9.40227 6.2511 10.4247 6.2511H35.1807C35.2827 6.2511 35.3834 6.2924 35.457 6.36603L41.3168 12.226C41.3904 12.2995 41.4317 12.3989 41.4317 12.5022V41.873C41.4304 42.9084 40.5977 43.7514 39.5752 43.7514Z" fill="#FFFFFE"/>
<path fill-rule="evenodd" clip-rule="evenodd" d="M11.1567 15.7724C10.9424 15.7724 10.7655 15.5968 10.7655 15.3812V8.83833C10.7655 8.624 10.9411 8.44714 11.1567 8.44714H17.236C17.4503 8.44714 17.6271 8.62269 17.6271 8.83833C17.6271 9.05261 17.4516 9.22947 17.236 9.22947H11.5479V15.3825C11.5479 15.5955 11.3723 15.7724 11.1567 15.7724Z" fill="#FFFFFE"/>
<path fill-rule="evenodd" clip-rule="evenodd" d="M41.0392 12.8909H36.6692C35.6313 12.8909 34.7896 12.0491 34.7896 11.0111V6.64102C34.7896 6.42674 34.9651 6.24988 35.1807 6.24988C35.3963 6.24988 35.5719 6.42543 35.5719 6.64102V11.0111C35.5719 11.6166 36.0651 12.1098 36.6705 12.1098H41.0405C41.2548 12.1098 41.4317 12.2854 41.4317 12.501C41.4304 12.7153 41.2548 12.8909 41.0392 12.8909Z" fill="#FFFFFE"/>
<path fill-rule="evenodd" clip-rule="evenodd" d="M14.2331 24.3655C13.8161 24.3655 13.4766 24.7051 13.4766 25.122V35.2785C13.4766 35.7007 13.8239 36.0596 14.2331 36.0596H35.7668C36.1774 36.0596 36.5234 35.7007 36.5234 35.2785V25.122C36.5234 24.7051 36.1838 24.3655 35.7668 24.3655H14.2331ZM35.7668 36.8419H14.2331C13.3862 36.8419 12.6956 36.1409 12.6956 35.2798V25.1233C12.6956 24.2764 13.3862 23.5857 14.2331 23.5857H35.7668C36.6137 23.5857 37.3044 24.2764 37.3044 25.1233V35.2798C37.3044 36.1409 36.6137 36.8419 35.7668 36.8419Z" fill="#FFFFFE"/>
<path fill-rule="evenodd" clip-rule="evenodd" d="M36.9145 28.174H13.0855C12.8712 28.174 12.6943 27.9984 12.6943 27.7828C12.6943 27.5685 12.8699 27.3916 13.0855 27.3916H36.9133C37.1276 27.3916 37.3045 27.5672 37.3045 27.7828C37.3045 27.9984 37.1289 28.174 36.9145 28.174Z" fill="#FFFFFE"/>
<path fill-rule="evenodd" clip-rule="evenodd" d="M36.9145 33.0334H13.0855C12.8712 33.0334 12.6943 32.8578 12.6943 32.6422C12.6943 32.4279 12.8699 32.251 13.0855 32.251H36.9133C37.1276 32.251 37.3045 32.4266 37.3045 32.6422C37.3045 32.8578 37.1289 33.0334 36.9145 33.0334Z" fill="#FFFFFE"/>
<path fill-rule="evenodd" clip-rule="evenodd" d="M31.5672 36.8419C31.3529 36.8419 31.176 36.6663 31.176 36.4507V23.9743C31.176 23.7599 31.3516 23.5831 31.5672 23.5831C31.7815 23.5831 31.9584 23.7587 31.9584 23.9743V36.4507C31.9584 36.6663 31.7815 36.8419 31.5672 36.8419Z" fill="#FFFFFE"/>
<path fill-rule="evenodd" clip-rule="evenodd" d="M24.9999 36.8419C24.7856 36.8419 24.6088 36.6663 24.6088 36.4507V23.9743C24.6088 23.7599 24.7844 23.5831 24.9999 23.5831C25.2143 23.5831 25.3911 23.7587 25.3911 23.9743V36.4507C25.3911 36.6663 25.2143 36.8419 24.9999 36.8419Z" fill="#FFFFFE"/>
<path fill-rule="evenodd" clip-rule="evenodd" d="M18.4328 36.8419C18.2185 36.8419 18.0416 36.6663 18.0416 36.4507V23.9743C18.0416 23.7599 18.2172 23.5831 18.4328 23.5831C18.6471 23.5831 18.824 23.7587 18.824 23.9743V36.4507C18.8227 36.6663 18.6471 36.8419 18.4328 36.8419Z" fill="#FFFFFE"/>
<path fill-rule="evenodd" clip-rule="evenodd" d="M25.0001 10.1074C22.0928 10.1074 19.7264 12.4828 19.7264 15.4057C19.7264 18.3131 22.0914 20.6796 25.0001 20.6796C27.9073 20.6796 30.2737 18.3144 30.2737 15.4057C30.2737 12.4828 27.9073 10.1074 25.0001 10.1074ZM25.0001 21.4606C21.6628 21.4606 18.9453 18.743 18.9453 15.4057C18.9453 13.7803 19.5753 12.2518 20.7204 11.1041C21.8629 9.95632 23.3837 9.32629 25.0001 9.32629C26.6164 9.32629 28.1372 9.95889 29.2797 11.1041C30.4248 12.2518 31.0548 13.7803 31.0548 15.4057C31.0548 18.743 28.3373 21.4606 25.0001 21.4606Z" fill="#FFFFFE"/>
<path fill-rule="evenodd" clip-rule="evenodd" d="M25 19.0917C24.4578 19.0917 23.9478 18.8748 23.5644 18.4836C23.1836 18.0924 22.9731 17.5824 22.9731 17.0402C22.9731 16.8259 23.1487 16.6491 23.3643 16.6491C23.5786 16.6491 23.7555 16.8246 23.7555 17.0402C23.7555 17.7412 24.3145 18.3093 25 18.3093C25.6855 18.3093 26.2445 17.74 26.2445 17.0402C26.2445 16.3547 25.6855 15.7957 25 15.7957C24.4578 15.7957 23.9478 15.5827 23.567 15.1979C23.1836 14.8119 22.9731 14.2968 22.9731 13.7455C22.9731 12.6275 23.8807 11.7186 25 11.7186C26.118 11.7186 27.0268 12.6262 27.0268 13.7455C27.0268 13.9599 26.8513 14.1367 26.6357 14.1367C26.4214 14.1367 26.2445 13.9611 26.2445 13.7455C26.2445 13.06 25.6855 12.501 25 12.501C24.3145 12.501 23.7555 13.06 23.7555 13.7455C23.7555 14.4582 24.3029 15.0146 25 15.0146C26.118 15.0146 27.0268 15.9222 27.0268 17.0415C27.0268 17.5838 26.8164 18.0937 26.4356 18.4849C26.0522 18.8748 25.5422 19.0917 25 19.0917Z" fill="#FFFFFE"/>
<path fill-rule="evenodd" clip-rule="evenodd" d="M24.9999 12.4997C24.7856 12.4997 24.6088 12.3241 24.6088 12.1085V11.5469C24.6088 11.3326 24.7844 11.1558 24.9999 11.1558C25.2143 11.1558 25.3911 11.3313 25.3911 11.5469V12.1098C25.3911 12.3241 25.2143 12.4997 24.9999 12.4997Z" fill="#FFFFFE"/>
<path fill-rule="evenodd" clip-rule="evenodd" d="M24.9999 19.6532C24.7856 19.6532 24.6088 19.4776 24.6088 19.262V18.7005C24.6088 18.4861 24.7844 18.3093 24.9999 18.3093C25.2143 18.3093 25.3911 18.4849 25.3911 18.7005V19.262C25.3911 19.4776 25.2143 19.6532 24.9999 19.6532Z" fill="#FFFFFE"/>
<path fill-rule="evenodd" clip-rule="evenodd" d="M26.0496 40.675H13.0855C12.8712 40.675 12.6943 40.4994 12.6943 40.2838C12.6943 40.0682 12.8699 39.8926 13.0855 39.8926H26.0496C26.2639 39.8926 26.4408 40.0682 26.4408 40.2838C26.4408 40.4994 26.2652 40.675 26.0496 40.675Z" fill="#FFFFFE"/>
<path fill-rule="evenodd" clip-rule="evenodd" d="M36.9145 40.675H32.4709C32.2566 40.675 32.0797 40.4994 32.0797 40.2838C32.0797 40.0682 32.2553 39.8926 32.4709 39.8926H36.9145C37.1288 39.8926 37.3056 40.0682 37.3056 40.2838C37.3056 40.4994 37.1288 40.675 36.9145 40.675Z" fill="#FFFFFE"/>
<defs>
<linearGradient id="paint0_linear_13588_30" x1="-10.05" y1="-6.1" x2="25" y2="50" gradientUnits="userSpaceOnUse">
<stop offset="0.3134" stop-color="#C1A0BF"/>
<stop offset="1" stop-color="#B73E71"/>
</linearGradient>
</defs>
</svg>
